<svg xmlns="http://www.w3.org/2000/svg" width="54" height="26" viewBox="0 0 54 26" fill="none">
    <path d="M53.464 21.3958L41.127 25.9481C40.7012 26.1053 40.2266 25.8928 40.067 25.4736L36.0208 14.8467C35.8611 14.4275 36.077 13.9603 36.5028 13.8031L48.8397 9.2508C49.2655 9.09364 49.7401 9.30613 49.8998 9.72532L53.946 20.3522C54.1056 20.7715 53.8898 21.2387 53.464 21.3958Z" fill="#84DD6E"></path>
    <path d="M36.5028 13.8031C36.077 13.9603 35.8611 14.4275 36.0208 14.8467L40.067 25.4736C40.2266 25.8928 40.7012 26.1053 41.127 25.9481L42.654 25.3847L38.0279 13.2403L36.5028 13.8031Z" fill="#5BD23E"></path>
    <path d="M42.6763 12.3338C42.5059 12.3338 42.3372 12.2817 42.195 12.1809C41.9755 12.0254 41.8477 11.7735 41.853 11.5073C41.8681 10.7507 41.9894 6.91405 42.891 5.68158C43.4052 4.97866 44.1666 4.51508 45.035 4.37606C45.9035 4.23703 46.7747 4.43919 47.4887 4.94543C48.2027 5.45157 48.6736 6.2011 48.8148 7.05601C48.956 7.91092 48.7506 8.76868 48.2364 9.4716C47.3347 10.704 43.6766 12.0329 42.9525 12.2868C42.8626 12.3184 42.7693 12.3338 42.6763 12.3338ZM45.5672 5.95487C45.4783 5.95487 45.3889 5.96186 45.2993 5.97625C44.8652 6.04586 44.4844 6.2776 44.2273 6.62901C43.9087 7.06442 43.6602 8.69845 43.5527 10.3252C45.0859 9.70941 46.5814 8.95938 46.9001 8.52407C47.1572 8.17266 47.2598 7.74373 47.1892 7.31633C47.1186 6.88882 46.8831 6.5141 46.5261 6.26108C46.2428 6.05995 45.9097 5.95487 45.5672 5.95487Z" fill="#FFC67C"></path>
    <path d="M37.6773 13.6347C37.4647 13.6347 37.2716 13.6175 37.1047 13.5791C36.2479 13.3822 35.5203 12.8686 35.056 12.133C34.5916 11.3974 34.446 10.5277 34.6461 9.68429C34.8461 8.84092 35.3679 8.12453 36.1152 7.66753C36.8624 7.21023 37.7459 7.06695 38.6026 7.26404C40.105 7.60937 42.7582 10.4225 43.2747 10.9828C43.4565 11.18 43.5283 11.4526 43.4667 11.7119C43.4052 11.9712 43.2183 12.1842 42.9665 12.2818C42.3307 12.5282 39.3802 13.6347 37.6773 13.6347ZM37.8506 8.79958C37.547 8.79958 37.2487 8.88277 36.9844 9.04439C36.6108 9.27299 36.3498 9.63119 36.2499 10.0529C36.1498 10.4746 36.2226 10.9094 36.4548 11.2772C36.687 11.645 37.0508 11.9019 37.4792 12.0004C38.0105 12.1224 39.6386 11.72 41.2045 11.1919C40.0375 10.0355 38.7588 8.96465 38.2281 8.84254C38.1027 8.81387 37.9762 8.79958 37.8506 8.79958Z" fill="#FFC67C"></path>
    <path d="M45.1764 15.7969L51.3448 13.5207L50.7668 12.0025L44.5984 14.2786L43.4424 11.2424L41.9001 11.8115L43.0563 14.8477L36.8877 17.1239L37.4658 18.6421L43.6343 16.3659L46.5244 23.9565L48.0665 23.3874L45.1764 15.7969Z" fill="#FFC67C"></path>
    <path d="M29.7659 21.6431L16.4933 18.5006C16.0351 18.3922 15.7533 17.9396 15.8638 17.4899L18.665 6.08959C18.7755 5.63987 19.2365 5.36324 19.6946 5.47171L32.9672 8.61419C33.4254 8.72266 33.7072 9.17521 33.5967 9.62493L30.7955 21.0252C30.685 21.475 30.224 21.7516 29.7659 21.6431Z" fill="#FB8BA4"></path>
    <path d="M19.6946 5.47171C19.2365 5.36324 18.7755 5.63987 18.665 6.08959L15.8638 17.4899C15.7533 17.9396 16.0351 18.3922 16.4933 18.5006L17.9542 18.8465L21.11 5.80678L19.6946 5.47171Z" fill="#FA7795"></path>
    <path d="M31.0594 8.62309C29.2663 8.62309 26.7278 8.007 26.1238 7.8536C25.8524 7.7847 25.6327 7.58932 25.5363 7.3309C25.4397 7.07248 25.4787 6.78412 25.6405 6.55942C26.1001 5.9206 28.4687 2.70724 29.97 2.16705C30.826 1.859 31.7531 1.8968 32.5802 2.27323C33.4074 2.64965 34.0358 3.31967 34.3495 4.16005C34.6633 5.00033 34.6249 5.91034 34.2415 6.72234C33.858 7.53424 33.1754 8.15107 32.3193 8.45912C31.9941 8.57597 31.5552 8.62309 31.0594 8.62309ZM27.7965 6.51743C29.4755 6.86527 31.2017 7.07667 31.732 6.8859C32.6156 6.568 33.0709 5.60375 32.7471 4.73646C32.4232 3.86907 31.441 3.42197 30.5573 3.74007C30.0261 3.93116 28.8482 5.18733 27.7965 6.51743Z" fill="#FFC67C"></path>
    <path d="M26.3252 7.87747C26.2631 7.87747 26.2007 7.87088 26.1387 7.85726C25.3613 7.68649 21.4286 6.77606 20.3433 5.62354C19.0656 4.26675 19.1507 2.14276 20.5328 0.888576C21.915 -0.365502 24.0787 -0.281945 25.3562 1.07464C26.4415 2.22726 27.0574 6.14739 27.1699 6.9216C27.2094 7.19405 27.1101 7.46817 26.9043 7.65497C26.7451 7.79946 26.5376 7.87747 26.3252 7.87747ZM22.8491 1.67451C22.4345 1.67451 22.0191 1.82141 21.6913 2.11878C21.0002 2.74577 20.9578 3.80781 21.5965 4.48611C21.9805 4.89394 23.6148 5.47821 25.2701 5.91955C24.9514 4.26434 24.4864 2.61886 24.103 2.21176C23.7672 1.85523 23.3088 1.67451 22.8491 1.67451Z" fill="#FFC67C"></path>
    <path d="M32.9964 12.0679L26.36 10.4965L27.1604 7.23939L25.5014 6.84652L24.7011 10.1038L18.0648 8.53252L17.6646 10.1611L24.3009 11.7325L22.3 19.8755L23.9591 20.2683L25.9599 12.1252L32.5962 13.6966L32.9964 12.0679Z" fill="#FFC67C"></path>
    <path d="M17.3123 23.4338L3.96653 25.9848C3.50588 26.0729 3.06126 25.7697 2.97348 25.3076L0.748034 13.594C0.660256 13.1319 0.962543 12.6859 1.42319 12.5979L14.769 10.0467C15.2296 9.95864 15.6742 10.2619 15.762 10.7239L17.9874 22.4375C18.0752 22.8997 17.7729 23.3456 17.3123 23.4338Z" fill="#7288F4"></path>
    <path d="M1.42319 12.5979C0.962543 12.6859 0.660256 13.1319 0.748034 13.594L2.97348 25.3076C3.06126 25.7697 3.50588 26.0729 3.96653 25.9848L5.53846 25.6844L3.10806 12.2758L1.42319 12.5979Z" fill="#4F6AF1"></path>
    <path d="M8.10186 12.171C7.8761 12.171 7.65713 12.0805 7.49601 11.9161C7.30061 11.7164 7.21527 11.4332 7.26802 11.1584C7.41768 10.3776 8.22201 6.42593 9.35718 5.3077C10.6937 3.99154 12.8483 4.01145 14.1603 5.35146C14.796 6.00081 15.1415 6.85947 15.1333 7.76956C15.1251 8.67954 14.7641 9.53181 14.1167 10.1694C12.9816 11.2877 9.02815 12.0225 8.24717 12.1585C8.19866 12.1669 8.15005 12.171 8.10186 12.171ZM11.7368 6.03594C11.3071 6.03594 10.8772 6.19798 10.5471 6.52314C10.1461 6.91813 9.60332 8.56668 9.2054 10.2324C10.8728 9.86346 12.5259 9.34901 12.9269 8.95401C13.2506 8.63525 13.4311 8.20906 13.4353 7.75401C13.4394 7.29908 13.2666 6.86958 12.9489 6.54507C12.6167 6.20597 12.1769 6.03594 11.7368 6.03594Z" fill="#FFC67C"></path>
    <path d="M3.75106 12.7089C3.08142 12.7089 2.48226 12.6442 2.07479 12.4715C0.349583 11.7405 -0.461116 9.73783 0.267749 8.0073C0.620772 7.16908 1.2781 6.51888 2.11862 6.17648C2.95925 5.83386 3.88236 5.84046 4.71811 6.19468C6.18369 6.81571 8.38048 10.1937 8.80599 10.8646C8.95576 11.1006 8.98028 11.3954 8.8718 11.6532C8.76322 11.9109 8.53544 12.0989 8.26224 12.1557C7.70192 12.2724 5.48953 12.7089 3.75106 12.7089ZM3.39655 7.62859C3.18024 7.62859 2.96392 7.67065 2.75748 7.75476C2.33727 7.92585 2.00856 8.251 1.83204 8.67027C1.46756 9.53554 1.87291 10.5368 2.73562 10.9024C3.25337 11.122 4.9791 10.9904 6.66493 10.7182C5.6842 9.31611 4.57503 7.98324 4.05728 7.76391C3.84457 7.67373 3.62072 7.62859 3.39655 7.62859Z" fill="#FFC67C"></path>
    <path d="M16.2389 13.234L9.56606 14.5096L8.93018 11.1629L7.26197 11.4818L7.89786 14.8285L1.22492 16.1041L1.54281 17.7774L8.21575 16.5018L9.8053 24.8687L11.4735 24.5499L9.88395 16.183L16.5568 14.9074L16.2389 13.234Z" fill="#FFC67C"></path>
</svg>